Coordinates
version=1
nRows=16
nColumns=42
inDegrees=yes

Units are S.I. units (second, meters, Newtons, ...)
If the header above contains a line with 'inDegrees', this indicates whether rotational values are in degrees (yes) or radians (no).

endheader
time	pelvis_tilt	pelvis_list	pelvis_rotation	pelvis_tx	pelvis_ty	pelvis_tz	hip_flexion_r	hip_adduction_r	hip_rotation_r	knee_angle_r	knee_angle_r_beta	ankle_angle_r	subtalar_angle_r	mtp_angle_r	hip_flexion_l	hip_adduction_l	hip_rotation_l	knee_angle_l	knee_angle_l_beta	ankle_angle_l	subtalar_angle_l	mtp_angle_l	lumbar_extension	lumbar_bending	lumbar_rotation	sh_tx_r	sh_ty_r	sh_tz_r	sh_plane_elev_r	sh_elev_r	sh_axial_rot_r	elbow_flex_r	pro_sup_r	sh_tx_l	sh_ty_l	sh_tz_l	sh_plane_elev_l	sh_elev_l	sh_axial_rot_l	elbow_flex_l	pro_sup_l
      6.13333330	     -3.67195081	     -1.10206256	     -2.01366336	      0.28678486	      0.94281084	     -0.04313647	      2.40028793	     -5.38530859	     -2.54891499	      1.36035007	      0.02374259	      5.40375406	      6.76692427	     -7.49999987	      1.53511588	     -5.83428881	     -2.16370653	      1.62418776	      0.02834742	      8.21084183	     -0.96093623	     -7.49999987	     -1.85781049	      0.81978769	     -1.94728629	     -0.00981341	     -0.01379579	     -0.00482252	     -4.68637180	      7.46962343	      5.49202361	     31.15411436	     76.77654183	     -0.01273315	     -0.01101313	     -0.00388233	      5.33597640	      8.95258483	     -0.10967176	     25.28159666	     61.36662207
      6.15000000	     -3.57929679	     -1.08822109	     -2.02300559	      0.28635995	      0.94356621	     -0.04345297	      2.22506483	     -5.37167887	     -2.34310412	      1.31736793	      0.02299241	      5.38447007	      6.37029381	     -7.49999987	      1.30589764	     -5.78288669	     -2.23787581	      1.56012485	      0.02722932	      8.29616429	     -0.91549018	     -7.49999987	     -1.83127208	      0.65285265	     -1.94834685	     -0.01035287	     -0.01406143	     -0.00472997	     -4.71603214	      7.29261382	      5.35909101	     30.91817652	     76.10456907	     -0.01377713	     -0.01137232	     -0.00394586	      6.01567538	      8.46579777	      0.03751594	     24.92311177	     61.60466098
      6.16666670	     -3.40048003	     -1.06876003	     -2.08162687	      0.28637593	      0.94623865	     -0.04301020	      1.99375781	     -5.37081528	     -2.18008771	      1.26981278	      0.02216241	      5.44564988	      6.23588217	     -7.49999987	      0.97733536	     -5.70819088	     -2.26117754	      1.42120346	      0.02480468	      8.28401392	     -0.91652952	     -7.49999987	     -2.01506798	      0.50934285	     -1.92752763	     -0.01058361	     -0.01421017	     -0.00472048	     -4.79138906	      7.18991228	      5.08614735	     30.89117152	     77.84587213	     -0.01452969	     -0.01160928	     -0.00390623	      6.69662386	      7.89932665	     -1.29046798	     24.64948789	     65.42047500
      6.18333330	     -3.36035472	     -1.05952924	     -2.16927014	      0.28596470	      0.94378112	     -0.04328901	      1.96593519	     -5.36396519	     -1.98372095	      1.26368225	      0.02205542	      5.52660047	      6.13374134	     -7.49999987	      0.83032883	     -5.64347601	     -2.40559439	      1.34151831	      0.02341391	      8.36858438	     -0.84080013	     -7.49999987	     -1.86324749	      0.34314078	     -1.76461622	     -0.01023944	     -0.01423755	     -0.00476694	     -4.36533789	      7.18786410	      5.57172636	     30.38093413	     77.34878952	     -0.01384765	     -0.01169735	     -0.00388567	      7.30214638	      7.49224510	     -0.87726109	     24.23986977	     65.34247815
      6.20000000	     -3.20673129	     -1.03358887	     -2.18818668	      0.28616221	      0.94673176	     -0.04337554	      1.79636029	     -5.38295625	     -1.81818155	      1.21520818	      0.02120938	      5.48265589	      5.81168929	     -7.49999987	      0.54000180	     -5.59155646	     -2.41031261	      1.21209013	      0.02115496	      8.30432507	     -0.90113648	     -7.49999987	     -2.03551618	      0.21030844	     -1.72334762	     -0.00999267	     -0.01452617	     -0.00471062	     -5.14946162	      6.92283983	      5.32546565	     30.56291641	     76.40689079	     -0.01410084	     -0.01183777	     -0.00392587	      7.27866088	      6.96947727	     -0.78632797	     24.22615793	     65.18455403
      6.21666670	     -3.19769685	     -1.04130066	     -2.27152085	      0.28566255	      0.94360600	     -0.04345140	      1.85050173	     -5.35225066	     -1.49590166	      1.22893211	      0.02144891	      5.41519687	      5.58544376	     -7.49999987	      0.43184751	     -5.55668329	     -2.55592474	      1.12438304	      0.01962419	      8.38371333	     -1.00025700	     -7.49999987	     -1.95725564	      0.12470268	     -1.65446472	     -0.01010497	     -0.01445615	     -0.00473379	     -4.93159760	      6.89901263	      5.59663975	     30.38033286	     75.92829322	     -0.01421004	     -0.01209603	     -0.00396416	      7.72012583	      6.56169145	     -0.48332156	     24.05139945	     65.11875875
      6.23333330	     -3.10698673	     -1.08123736	     -2.30228489	      0.28177812	      0.94338545	     -0.03862483	      1.86415783	     -5.22388162	     -1.29620966	      1.23602477	      0.02157270	      5.30382217	      5.17006417	     -7.49999987	      0.33162629	     -5.65205979	     -2.61941237	      1.01192545	      0.01766143	      8.42518035	     -0.92425605	     -7.49999987	     -2.14122824	      0.03276873	     -2.02721386	     -0.00851717	     -0.01487139	     -0.00476157	     -4.87598086	      6.77655909	      5.18487055	     30.99604609	     75.90760791	     -0.01486521	     -0.01203795	     -0.00391707	      8.64505096	      6.33173805	     -1.12792199	     24.31790142	     65.89578965
      6.25000000	     -3.03622020	     -1.08359147	     -2.27671881	      0.28518334	      0.94391838	     -0.04380788	      1.80033797	     -5.24115879	     -1.20022171	      1.26202250	      0.02202645	      5.08977079	      5.04913573	     -7.49999987	      0.26004121	     -5.67452732	     -2.60882781	      0.92328258	      0.01611432	      8.35553972	     -0.87953365	     -7.49999987	     -2.22102614	     -0.02831749	     -2.03543285	     -0.00819789	     -0.01481855	     -0.00476912	     -5.46730486	      6.74767158	      5.23591717	     31.24661189	     75.05696257	     -0.01483568	     -0.01214864	     -0.00392817	      9.63017815	      5.98658735	     -1.07074702	     24.63615165	     65.86470802
      6.26666670	     -3.07411125	     -1.08909792	     -2.30900657	      0.28457143	      0.94313486	     -0.04360546	      2.23730784	     -5.26888064	     -1.11375987	      1.91541684	      0.03343033	      5.17572022	      4.60726137	     -7.49999987	      0.62474763	     -5.73435910	     -2.76024279	      1.44197877	      0.02516728	      8.71534199	     -0.74308666	     -7.49999987	     -2.35516937	     -0.04478268	     -1.89027808	     -0.00808485	     -0.01226023	     -0.00498112	     -5.32118633	      7.01004957	      5.19381553	     31.38122951	     74.22172992	     -0.01422610	     -0.00989301	     -0.00462575	     11.10817107	      6.02460065	     -0.46843458	     24.96011504	     65.67215226
      6.28333330	     -3.10555678	     -1.10729888	     -2.43168085	      0.28070503	      0.94093469	     -0.04826106	      2.09150607	     -5.31867364	     -0.88026784	      1.44823673	      0.02527650	      4.85298146	      4.47968333	     -7.49999987	      0.35383054	     -5.65797599	     -2.89712790	      0.76948093	      0.01342998	      8.53668753	     -0.57607279	     -7.49999987	     -2.12488372	      0.03317507	     -1.86846648	     -0.00798457	     -0.01487358	     -0.00475459	     -6.20462039	      7.06020598	      4.14243391	     31.66776833	     73.67347197	     -0.01411875	     -0.01257062	     -0.00401182	     12.50178113	      5.51675132	     -1.05070891	     24.95315319	     65.40019399
      6.30000000	     -3.18284437	     -1.11774305	     -2.49275385	      0.27692860	      0.94057767	     -0.04342841	      2.39604786	     -5.30559394	     -0.57480874	      1.57654849	      0.02751596	      4.82460990	      4.03291795	     -7.49999987	      0.53518515	     -5.67253485	     -2.89520448	      0.72359003	      0.01262903	      8.60320620	     -0.59081023	     -7.49999987	     -2.04394234	      0.01985076	     -1.92180101	     -0.00603832	     -0.01496696	     -0.00477370	     -8.72217070	      7.11663772	      4.91970473	     32.48273015	     76.06467324	     -0.01311018	     -0.01280481	     -0.00407630	     12.20434982	      5.21493174	     -1.40452730	     25.38154642	     67.34855293
      6.31666670	     -3.31851520	     -1.13553212	     -2.50324031	      0.27671446	      0.93789558	     -0.04356950	      2.74333136	     -5.28209543	     -0.43802729	      1.73197621	      0.03022869	      4.78954079	      3.80208408	     -7.49999987	      0.81183554	     -5.69996069	     -2.79402687	      0.72280613	      0.01261535	      8.66034459	     -0.54239629	     -7.49999987	     -1.92521433	      0.01149145	     -1.97931651	     -0.00631971	     -0.01507188	     -0.00473032	     -9.07479440	      7.31118282	      4.04183750	     32.88636464	     74.91212756	     -0.01279397	     -0.01285472	     -0.00412933	     13.27749810	      5.23298634	     -1.34641396	     25.52193260	     66.82874578
      6.33333330	     -3.31868660	     -1.14917382	     -2.49426272	      0.28116554	      0.94130949	     -0.04826326	      2.84149183	     -5.33257561	     -0.42618249	      1.88307894	      0.03286593	      4.75151987	      3.78557459	     -7.49999987	      0.87881111	     -5.68051748	     -2.72612070	      0.68854639	      0.01201740	      8.63543197	     -0.37806550	     -7.49999987	     -1.90243582	      0.04802225	     -2.11812303	     -0.00600821	     -0.01500047	     -0.00477513	    -10.03268660	      7.62209254	      3.63159435	     33.51060614	     74.31128554	     -0.01290709	     -0.01307788	     -0.00413918	     13.56700152	      4.99483948	     -1.88610681	     25.68775050	     66.52991137
      6.35000000	     -3.36716081	     -1.19342232	     -2.50576353	      0.28074678	      0.93559350	     -0.04846197	      3.00936317	     -5.36008441	     -0.31566264	      2.06376114	      0.03601943	      4.76547534	      3.51678496	     -7.49999987	      0.94075378	     -5.66968755	     -2.71499972	      0.65451998	      0.01142353	      8.89465024	     -0.32122553	     -7.49999987	     -1.90116136	      0.16325495	     -2.10707147	     -0.00686022	     -0.01485136	     -0.00483106	    -11.03713646	      7.90697295	      3.01261207	     34.33803622	     74.32162464	     -0.01365534	     -0.01307767	     -0.00414562	     13.77087877	      4.86576158	     -1.96443448	     25.77612879	     66.67263591
      6.36666670	     -3.49913636	     -1.22070482	     -2.64085430	      0.27717970	      0.93848852	     -0.04347480	      3.32699267	     -5.32311082	     -0.15485995	      2.24665314	      0.03921149	      4.95394332	      3.39725301	     -7.49999987	      1.09966681	     -5.71086678	     -2.73213831	      0.61092020	      0.01066257	      9.00425287	     -0.21560740	     -7.49999987	     -1.67952994	      0.11062923	     -1.46823125	     -0.00684493	     -0.01492427	     -0.00482064	    -16.08034792	      7.87504475	      5.23003301	     35.74089450	     76.38933205	     -0.01195556	     -0.01294872	     -0.00415264	     12.11261283	      4.68615362	     -1.15635880	     26.05731978	     68.77234591
      6.38333330	     -3.64093641	     -1.26016050	     -2.73357831	      0.27688974	      0.93590906	     -0.04358804	      3.64686222	     -5.24679574	      0.10358070	      2.43402974	      0.04248183	      5.06100504	      3.14958215	     -7.49999987	      1.28626585	     -5.78460620	     -2.75826553	      0.59830313	      0.01044236	      9.12632210	     -0.09393069	     -7.49999987	     -1.57006673	      0.12251204	     -1.66937940	     -0.00737177	     -0.01482572	     -0.00487749	    -16.33658550	      8.07948018	      4.42587358	     36.38938345	     75.55238026	     -0.01334871	     -0.01279905	     -0.00415704	     12.44735518	      4.84170234	     -1.44518439	     26.06537544	     68.23283979
